<?xml version="1.0" encoding="utf-8"?>

<!DOCTYPE svg PUBLIC "-//W3C//DTD SVG 1.1//EN" "http://www.w3.org/Graphics/SVG/1.1/DTD/svg11.dtd">
<!-- Uploaded to: SVG Repo, www.svgrepo.com, Generator: SVG Repo Mixer Tools -->
<svg height="800px" width="800px" version="1.1" id="_x32_" xmlns="http://www.w3.org/2000/svg" xmlns:xlink="http://www.w3.org/1999/xlink" 
	 viewBox="0 0 512 512"  xml:space="preserve">
<style type="text/css">
	.st0{fill:#000000;}
</style>
<g>
	<path class="st0" d="M480.707,256.004c0-10.099-6.711-18.528-15.889-21.353v-74.08c9.178-2.825,15.889-11.239,15.889-21.362
		c0-12.386-10.044-22.422-22.43-22.422c-5.916,0-11.262,2.334-15.25,6.079l-64.06-36.993c0.367-1.631,0.608-3.302,0.608-5.049
		c0-12.394-10.044-22.431-22.438-22.431c-5.916,0-11.254,2.326-15.25,6.072l-64.059-36.977c0.375-1.639,0.616-3.31,0.616-5.058
		c0-12.386-10.044-22.43-22.438-22.43c-12.386,0-22.43,10.044-22.43,22.43c0,1.748,0.242,3.419,0.601,5.058l-64.052,36.977
		c-4.011-3.746-9.35-6.072-15.25-6.072c-12.386,0-22.446,10.037-22.446,22.431c0,1.748,0.234,3.418,0.617,5.049l-64.052,36.993
		c-4.011-3.746-9.358-6.079-15.273-6.079c-12.386,0-22.43,10.036-22.43,22.422c0,10.123,6.719,18.536,15.889,21.362v74.08
		c-9.17,2.825-15.889,11.254-15.889,21.353c0,10.099,6.719,18.528,15.889,21.353v74.065c-9.17,2.809-15.889,11.246-15.889,21.361
		c0,12.386,10.044,22.43,22.43,22.43c5.916,0,11.262-2.318,15.273-6.063l64.052,36.969c-0.383,1.647-0.617,3.302-0.617,5.065
		c0,12.379,10.037,22.415,22.431,22.415c5.916,0,11.254-2.326,15.265-6.064l64.052,36.97c-0.375,1.654-0.609,3.31-0.609,5.073
		c0,12.378,10.029,22.422,22.423,22.422c12.409,0,22.453-10.044,22.453-22.422c0-1.764-0.241-3.419-0.624-5.073l64.052-36.97
		c4.011,3.738,9.35,6.064,15.265,6.064c12.394,0,22.438-10.036,22.438-22.415c0-1.764-0.242-3.418-0.624-5.065l64.052-36.969
		c4.011,3.746,9.358,6.063,15.273,6.063c12.386,0,22.43-10.044,22.43-22.43c0-10.115-6.711-18.552-15.889-21.361v-74.065
		C473.996,274.532,480.707,266.103,480.707,256.004z M176.683,75.79l64.067-36.993c4.003,3.746,9.342,6.079,15.258,6.079
		c5.916,0,11.254-2.334,15.25-6.079l64.067,36.993c-0.374,1.615-0.616,3.294-0.616,5.034c0,1.748,0.242,3.418,0.616,5.049
		l-64.067,36.993c-4.003-3.746-9.342-6.079-15.25-6.079c-5.916,0-11.254,2.334-15.265,6.079l-64.06-36.993
		c0.374-1.631,0.616-3.302,0.616-5.049C177.299,79.083,177.057,77.405,176.683,75.79z M148.321,409.816
		c-3.286,1.022-6.251,2.7-8.71,4.995l-64.067-36.978c0.382-1.631,0.624-3.309,0.624-5.049c0-10.115-6.72-18.552-15.89-21.361
		v-74.065c3.293-1.015,6.259-2.716,8.717-5.011l64.052,37.01c-0.383,1.623-0.617,3.293-0.617,5.041
		c0,10.099,6.704,18.528,15.89,21.353V409.816z M148.321,293.036c-3.286,1.022-6.251,2.693-8.71,4.987l-64.067-36.986
		c0.382-1.616,0.624-3.301,0.624-5.034c0-10.099-6.72-18.528-15.89-21.353v-74.08c3.293-1.022,6.259-2.692,8.717-4.995
		l64.052,36.993c-0.383,1.623-0.617,3.302-0.617,5.042c0,10.114,6.704,18.528,15.89,21.353V293.036z M139.611,181.252
		l-64.067-36.994c0.382-1.631,0.624-3.293,0.624-5.05c0-1.724-0.242-3.418-0.624-5.033l64.067-36.993
		c4.004,3.746,9.342,6.071,15.265,6.071c5.9,0,11.239-2.326,15.25-6.071l64.052,36.993c-0.375,1.615-0.609,3.309-0.609,5.033
		c0,1.749,0.234,3.419,0.609,5.05l-64.059,36.994c-4.004-3.746-9.342-6.072-15.258-6.072
		C148.953,175.18,143.615,177.506,139.611,181.252z M249.452,468.225c-3.285,0.991-6.251,2.684-8.709,4.964l-64.06-36.985
		c0.374-1.6,0.616-3.302,0.616-5.019c0-10.114-6.72-18.551-15.882-21.368V335.75c3.286-1.014,6.251-2.708,8.71-5.003l64.052,37.002
		c-0.375,1.608-0.609,3.286-0.609,5.034c0,10.099,6.696,18.535,15.882,21.361V468.225z M249.452,351.422
		c-3.285,1.014-6.251,2.708-8.709,5.01l-64.06-36.993c0.374-1.623,0.616-3.31,0.616-5.042c0-10.114-6.72-18.544-15.882-21.361
		v-74.073c3.286-1.014,6.251-2.7,8.71-5.002l64.052,36.994c-0.375,1.631-0.609,3.293-0.609,5.049
		c0,10.099,6.696,18.528,15.882,21.353V351.422z M255.993,233.574c-5.9,0-11.239,2.326-15.25,6.072l-64.06-36.994
		c0.374-1.623,0.616-3.285,0.616-5.041c0-1.74-0.242-3.419-0.616-5.042l64.06-36.993c4.011,3.754,9.35,6.072,15.265,6.072
		c5.908,0,11.247-2.318,15.25-6.072l64.067,36.993c-0.382,1.623-0.624,3.302-0.624,5.042c0,1.733,0.242,3.418,0.624,5.041
		l-64.067,36.978c-4.003-3.731-9.342-6.056-15.25-6.056C256.008,233.574,256.008,233.574,255.993,233.574z M350.599,409.816
		c-9.179,2.817-15.898,11.254-15.898,21.368c0,1.718,0.242,3.419,0.624,5.019l-64.067,36.985c-2.458-2.279-5.432-3.973-8.71-4.964
		v-74.08c9.162-2.826,15.897-11.262,15.897-21.361c0-1.748-0.241-3.426-0.624-5.034l64.052-37.002
		c2.458,2.294,5.424,3.989,8.726,5.003V409.816z M350.599,293.036c-9.179,2.817-15.898,11.246-15.898,21.361
		c0,1.732,0.242,3.419,0.624,5.042l-64.067,36.993c-2.458-2.302-5.416-3.996-8.71-5.01v-74.065
		c9.162-2.818,15.897-11.254,15.897-21.353c0-1.756-0.241-3.418-0.624-5.057l64.052-36.986c2.458,2.302,5.424,3.988,8.726,5.002
		V293.036z M341.873,181.252l-64.052-36.994c0.383-1.631,0.624-3.293,0.624-5.05c0-1.724-0.241-3.418-0.624-5.033l64.067-36.993
		c3.996,3.746,9.334,6.071,15.25,6.071c5.916,0,11.262-2.326,15.266-6.071l64.052,36.993c-0.367,1.615-0.624,3.309-0.624,5.033
		c0,1.757,0.257,3.419,0.624,5.05l-64.052,36.994c-4.019-3.746-9.358-6.072-15.266-6.072
		C351.223,175.18,345.885,177.506,341.873,181.252z M451.737,351.422c-9.186,2.809-15.905,11.246-15.905,21.361
		c0,1.74,0.257,3.418,0.624,5.049l-64.052,36.978c-2.458-2.294-5.432-3.973-8.726-4.995V335.75
		c9.186-2.825,15.898-11.254,15.898-21.353c0-1.748-0.242-3.418-0.624-5.041l64.052-37.01c2.458,2.294,5.447,3.996,8.732,5.011
		V351.422z M451.737,234.651c-9.186,2.825-15.905,11.254-15.905,21.353c0,1.733,0.257,3.418,0.624,5.034l-64.052,36.986
		c-2.458-2.294-5.432-3.965-8.726-4.987v-74.073c9.186-2.825,15.898-11.238,15.898-21.353c0-1.74-0.242-3.419-0.624-5.042
		l64.076-36.993c2.435,2.302,5.424,3.972,8.709,4.995V234.651z"/>
</g>
</svg>